<mxfile host="app.diagrams.net" modified="2024-06-29T14:30:24.552Z" agent="Mozilla/5.0 (Windows NT 10.0; Win64; x64) AppleWebKit/537.36 (KHTML, like Gecko) Chrome/126.0.0.0 Safari/537.36" version="24.6.1" etag="NZl039tdarJQ4pfCXvjl" type="github">
  <diagram name="Page-1" id="deKej3jg8PQDrWOHCxAv">
    <mxGraphModel>
      <root>
        <mxCell id="0" />
        <mxCell id="1" parent="0" />
      </root>
    </mxGraphModel>
  </diagram>
</mxfile>
